<?xml version="1.0" encoding="utf-8"?>
<!-- Uploaded to: SVG Repo, www.svgrepo.com, Generator: SVG Repo Mixer Tools -->
<svg width="800px" height="800px" viewBox="0 -39.5 1103 1103" class="icon"  version="1.1" xmlns="http://www.w3.org/2000/svg"><path d="M830.888 295.504c111.792 34.984 192.032 120.192 192.032 219.72 0 99.824-79.616 185.28-192.032 220.016" fill="#0092D2" /><path d="M682.976 16l-358.48 260.776H109.88c-60.064 0-108.8 48.704-108.8 108.8v252.944c0 60.096 48.736 108.728 108.8 108.728H324.56L682.976 1008V16z" fill="#F4A417" /><path d="M1.08 510.736v127.784c0 60.096 48.736 108.728 108.8 108.728H324.56L682.976 1008V510.736H1.08z" fill="#EF962F" /><path d="M324.56 747.248H109.88c-60.064 0-108.8-48.632-108.8-108.728V385.576c0-60.096 48.736-108.8 108.8-108.8h214.608l0.072 470.472z" fill="#E5226B" /><path d="M1.08 638.52c0 60.096 48.736 108.728 108.8 108.728H324.56l-0.032-236.512H1.08v127.784z" fill="#CB1B5B" /><path d="M830.888 735.232c112.416-34.736 192.032-120.192 192.032-220.016 0-1.528-0.416-2.952-0.488-4.48h-191.544v224.496z" fill="#1B81CC" /></svg>